<svg xmlns="http://www.w3.org/2000/svg" xmlns:svg="http://www.w3.org/2000/svg" id="svg2" width="200" height="50" version="1.1" viewBox="0 0 200 50"><metadata id="metadata7"/><g id="layer1" transform="translate(0,-1002.3622)"><path style="opacity:1;fill:#002b00;fill-opacity:1;stroke:#000;stroke-width:0;stroke-linejoin:miter;stroke-miterlimit:4;stroke-dasharray:none;stroke-opacity:1" id="rect6435-0-1" d="m 28.87076,1002.791 c -3.263085,-0.01 -6.478802,0.043 -9.403872,0.1484 -4.284473,0.1101 -7.85179,0.2743 -9.6900414,0.4748 -3.2658451,0.3562 -5.381703,1.7291 -6.7243955,3.8349 -1.4354016,1.7109 -2.23212114,3.9824 -2.34091497,6.7926 -0.11019932,2.8455 -0.14866753,6.4743 -0.15504416,10.1374 -0.00338,0.4832 -0.003643,0.9692 -0.002603,1.4574 0.005984,7.8334 0.15707425,15.388 0.15707425,15.388 0,5.6761 3.89666628,9.6348 8.66115898,10.2458 3.7640318,0.4826 12.2251968,0.6544 20.5325438,0.6197 0.0054,0 0.01093,0 0.01613,0 3.432185,0.013 6.829233,-0.034 9.903569,-0.1449 4.284473,-0.1101 7.851791,-0.2744 9.690042,-0.4748 3.265845,-0.3562 5.381703,-1.7291 6.724395,-3.8349 1.435402,-1.711 2.232121,-3.9824 2.340915,-6.7926 0.110199,-2.8455 0.148668,-6.4743 0.155044,-10.1374 0.0034,-0.4832 0.0036,-0.9692 0.0026,-1.4574 -0.006,-7.8334 -0.157075,-15.3881 -0.157075,-15.3881 0,-5.676 -3.896666,-9.6348 -8.661159,-10.2457 -3.764032,-0.4826 -12.225197,-0.6545 -20.532542,-0.6197 -0.0054,0 -0.01093,0 -0.01614,0 -0.166653,0 -0.333175,0 -0.499697,0 z"/><text style="font-style:normal;font-variant:normal;font-weight:700;font-stretch:normal;font-size:22.12314606px;line-height:125%;font-family:Roboto;-inkscape-font-specification:'Roboto Bold';letter-spacing:-.78081691px;word-spacing:0;fill:#333;fill-opacity:1;stroke:none;stroke-width:1px;stroke-linecap:butt;stroke-linejoin:miter;stroke-opacity:1" id="text4231-2-6-7" x="69.394" y="1034.104" xml:space="preserve"><tspan id="tspan4233-1-3-6" x="69.394" y="1034.104" style="font-style:normal;font-variant:normal;font-weight:700;font-stretch:normal;font-size:22.12314606px;font-family:Roboto;-inkscape-font-specification:'Roboto Bold';letter-spacing:-.78081691px;fill:#333;fill-opacity:1">Healthchecks</tspan></text><path style="color:#000;font-style:normal;font-variant:normal;font-weight:400;font-stretch:normal;font-size:medium;line-height:normal;font-family:sans-serif;text-indent:0;text-align:start;text-decoration:none;text-decoration-line:none;text-decoration-style:solid;text-decoration-color:#000;letter-spacing:normal;word-spacing:normal;text-transform:none;direction:ltr;block-progression:tb;writing-mode:lr-tb;baseline-shift:baseline;text-anchor:start;white-space:normal;clip-rule:nonzero;display:inline;overflow:visible;visibility:visible;opacity:1;isolation:auto;mix-blend-mode:normal;color-interpolation:sRGB;color-interpolation-filters:linearRGB;solid-color:#000;solid-opacity:1;fill:#fff;fill-opacity:1;fill-rule:evenodd;stroke:none;stroke-width:13;stroke-linecap:butt;stroke-linejoin:miter;stroke-miterlimit:4;stroke-dasharray:none;stroke-dashoffset:0;stroke-opacity:1;color-rendering:auto;image-rendering:auto;shape-rendering:auto;text-rendering:auto;enable-background:accumulate" id="path4296-88-2-2" d="m 30.341195,1008.3767 -5.080072,-0.047 -3.735716,26.105 -0.53983,-3.6283 -10.094636,-2e-4 -0.443529,3.2441 7.701275,0.014 0.641779,4.6879 5.583153,0.011 3.441426,-24.6705 0.587486,4.1893 3.302907,0 z"/><path style="color:#000;font-style:normal;font-variant:normal;font-weight:400;font-stretch:normal;font-size:medium;line-height:normal;font-family:sans-serif;text-indent:0;text-align:start;text-decoration:none;text-decoration-line:none;text-decoration-style:solid;text-decoration-color:#000;letter-spacing:normal;word-spacing:normal;text-transform:none;direction:ltr;block-progression:tb;writing-mode:lr-tb;baseline-shift:baseline;text-anchor:start;white-space:normal;clip-rule:nonzero;display:inline;overflow:visible;visibility:visible;opacity:1;isolation:auto;mix-blend-mode:normal;color-interpolation:sRGB;color-interpolation-filters:linearRGB;solid-color:#000;solid-opacity:1;fill:#5cb85f;fill-opacity:.94117647;fill-rule:evenodd;stroke:none;stroke-width:13;stroke-linecap:butt;stroke-linejoin:miter;stroke-miterlimit:4;stroke-dasharray:none;stroke-dashoffset:0;stroke-opacity:1;color-rendering:auto;image-rendering:auto;shape-rendering:auto;text-rendering:auto;enable-background:accumulate" id="path4290-9-1-1" d="m 32.5843,1024.6448 -3.297389,0.01 2.912993,20.9397 4.391366,-0.01 1.622459,-11.5241 7.562992,0.01 0.46594,-3.2452 -10.883702,0.01 -0.97472,6.8879 z"/></g></svg>